PathFileType	4	(X/Y/Z)	s07c0401.trc
DataRate	CameraRate	NumFrames	NumMarkers	Units	OrigDataRate	OrigDataStartFrame	OrigNumFrames
200	200	4	48	mm	200	250	2000
Frame#	Time	racr			lacr			c7			jug			rlel			rdr			llel			ldr			s2			lic			ric			lasi			rasi			rpsi			lpsi			rgt			lgt			rth1			rth2			rth3			rth4			rlfc			rmfc			rsh1			rsh2			rsh3			rsh4			rlmal			rcal			rtoe			rmt5			lth1			lth2			lth4			lth3			llfc			lmfc			lsh1			lsh2			lsh3			lsh4			llmal			lcal			ltoe			lmt5			SBIKE			LBIKE			RBIKE			
		X1	Y1	Z1	X2	Y2	Z2	X3	Y3	Z3	X4	Y4	Z4	X5	Y5	Z5	X6	Y6	Z6	X7	Y7	Z7	X8	Y8	Z8	X9	Y9	Z9	X10	Y10	Z10	X11	Y11	Z11	X12	Y12	Z12	X13	Y13	Z13	X14	Y14	Z14	X15	Y15	Z15	X16	Y16	Z16	X17	Y17	Z17	X18	Y18	Z18	X19	Y19	Z19	X20	Y20	Z20	X21	Y21	Z21	X22	Y22	Z22	X23	Y23	Z23	X24	Y24	Z24	X25	Y25	Z25	X26	Y26	Z26	X27	Y27	Z27	X28	Y28	Z28	X29	Y29	Z29	X30	Y30	Z30	X31	Y31	Z31	X32	Y32	Z32	X33	Y33	Z33	X34	Y34	Z34	X35	Y35	Z35	X36	Y36	Z36	X37	Y37	Z37	X38	Y38	Z38	X39	Y39	Z39	X40	Y40	Z40	X41	Y41	Z41	X42	Y42	Z42	X43	Y43	Z43	X44	Y44	Z44	X45	Y45	Z45	X46	Y46	Z46	X47	Y47	Z47	X48	Y48	Z48	
250	1.2500	424.762932	1472.112655	-88.613612	431.131725	1468.662267	-360.683274	392.961794	1504.513467	-232.804550	377.182410	1362.469163	-231.189087	479.324277	1146.021888	34.951889	694.354518	951.527039	-52.153149	493.455360	1158.027064	-502.843971	686.344582	932.710562	-437.036723	-141.949508	1210.190878	-251.723880	18.865908	1263.655882	-393.372201	28.601579	1252.163793	-98.535107	50.776334	1184.030472	-365.584358	46.640721	1200.765375	-120.270297	-114.626537	1248.656276	-200.157360	-105.512978	1257.704704	-309.005398	-20.364925	1131.142641	-57.804406	-30.452587	1103.498649	-422.241403	109.473233	1054.952594	-57.129927	192.195932	1027.520458	-68.237733	253.673764	969.050948	-68.662574	209.672579	1058.466510	-84.750883	364.533349	869.685598	-105.316472	355.240720	852.387125	-209.899171	327.365430	731.263622	-75.589422	322.959781	642.996171	-92.628759	280.285270	567.821004	-84.603923	336.720032	641.788392	-130.312482	234.281739	437.584026	-81.537503	165.967368	398.081452	-108.532601	453.663249	363.811183	-129.680006	376.785303	333.794354	-56.962340	44.338367	1003.135424	-427.923889	121.514194	959.918978	-428.427032	146.672965	985.482514	-420.787974	167.524646	883.842517	-421.611911	272.231207	743.009484	-383.008763	256.387458	729.293442	-284.168031	168.075208	635.258243	-404.117893	122.452698	565.154922	-383.449981	45.344636	519.157495	-393.033107	125.877331	565.696849	-341.621439	-56.995324	433.552621	-391.505612	-136.932692	425.750827	-358.726250	117.356371	286.852856	-358.285047	33.162874	298.686364	-421.039511	-263.880407	975.791870	-236.551675	-82.647232	78.973690	-435.133239	-82.631022	79.076681	-37.554656	
251	1.2550	425.504272	1471.765795	-88.778507	431.812431	1468.298740	-360.915869	393.565550	1504.104352	-232.871500	377.916767	1361.881042	-231.334570	479.035179	1145.534747	35.237452	694.345505	951.544612	-51.646018	493.648497	1158.094436	-504.251792	686.307568	932.687142	-437.212364	-141.684428	1210.442385	-251.523931	13.222796	1258.179992	-377.488145	29.302594	1252.126376	-98.296899	50.675850	1184.149507	-365.497108	47.281515	1200.704221	-120.123174	-114.235112	1248.867158	-199.967213	-105.274164	1258.000387	-308.623253	-20.180714	1130.747992	-57.926287	-30.331950	1103.983101	-422.331554	108.800659	1052.528603	-56.987272	191.088314	1023.451233	-68.030877	251.549899	964.133574	-68.505118	209.106627	1054.408539	-84.309228	361.033022	863.049966	-105.018044	351.520848	846.070833	-211.624723	324.428700	723.885588	-75.777341	321.495282	635.937447	-91.956810	279.863870	560.230671	-83.986252	335.425864	634.957055	-129.576261	235.584672	429.227685	-80.756377	166.963912	390.532041	-107.658284	454.383206	354.466157	-129.847670	377.760538	324.950836	-56.816805	45.217306	1004.336079	-427.914596	122.888712	961.998725	-428.460119	147.727935	987.818263	-420.880261	169.772601	886.447605	-421.778505	275.759331	746.532873	-383.154289	260.066236	733.071774	-284.215825	170.136642	640.010099	-403.999163	123.426380	570.542542	-383.451363	45.323467	526.192927	-392.724136	127.172179	570.861443	-341.818958	-58.154123	442.093513	-391.511923	-138.161205	434.058491	-358.749107	116.514713	295.757729	-358.340437	32.336045	307.409243	-421.020202	-263.901324	975.807160	-236.548468	-82.637460	78.963800	-435.129652	-82.649493	79.075136	-37.553556	
252	1.2600	426.276910	1471.445262	-88.984064	432.527434	1468.023311	-361.164346	394.198725	1503.784330	-233.099205	378.553352	1361.291037	-231.595296	478.675304	1145.162371	35.586009	694.392789	951.468086	-51.290037	493.648691	1157.906200	-505.035014	686.850282	933.088053	-438.077609	-141.451288	1210.739560	-251.273743	13.386419	1258.288433	-377.373790	29.820872	1252.078400	-98.174735	50.554233	1184.299566	-365.395755	47.963315	1200.607387	-119.906235	-113.756000	1249.077619	-199.758102	-105.096929	1258.360926	-308.457742	-19.951895	1130.282761	-58.075206	-30.264026	1104.485726	-422.447756	108.086371	1049.845979	-56.902300	189.847985	1019.089337	-67.812611	249.074600	958.822986	-68.405187	208.418004	1050.042967	-83.963940	357.066478	856.044857	-104.618620	347.686972	837.523376	-208.655470	321.405936	716.785963	-74.775819	319.648705	628.576048	-91.083168	278.928916	552.419474	-83.225677	333.723766	627.649837	-128.777786	236.491303	420.369633	-80.006058	168.093494	381.332297	-107.665014	455.160216	345.292039	-129.414879	378.146886	315.543435	-56.938290	46.135674	1005.612320	-427.927210	124.357128	964.246138	-428.413638	148.852439	990.457169	-420.807901	172.420407	889.421361	-422.548967	279.580354	750.537468	-383.501160	264.034783	737.304808	-284.368508	172.473161	645.424158	-404.024018	124.724675	576.672859	-383.413965	45.954561	533.425178	-392.539512	128.719283	576.810133	-341.804683	-59.176509	450.868023	-390.957939	-138.885232	442.842750	-358.900133	116.151915	304.888050	-358.345425	31.905334	316.493337	-421.097868	-263.916784	975.758789	-236.576113	-82.658343	78.962974	-435.117676	-82.646352	79.065271	-37.552035	
253	1.2650	427.095574	1471.157712	-89.285109	433.226093	1467.763220	-361.478298	394.817854	1503.403539	-233.337070	379.181537	1360.886101	-231.904033	478.300219	1144.840550	35.875229	694.454935	951.555825	-50.962760	493.576362	1157.710089	-505.922422	686.831944	933.134987	-438.200141	-141.211783	1211.051504	-250.962491	13.530984	1258.473594	-377.204582	30.525370	1251.953877	-97.894512	50.420582	1184.465284	-365.242097	48.725770	1200.497145	-119.638362	-113.280431	1249.254662	-199.472634	-104.926173	1258.712905	-308.195812	-19.691207	1129.790633	-58.167062	-30.140584	1104.985303	-422.588003	107.278559	1046.900067	-56.791156	188.471076	1014.416191	-67.579121	246.386319	953.241183	-68.247743	207.719145	1045.081051	-83.670550	352.612708	848.455100	-103.967693	343.622918	830.361874	-208.839339	318.019143	708.993494	-73.802206	317.231129	620.769802	-90.193544	277.466730	543.975513	-82.386898	331.778466	619.600387	-128.222391	236.758885	411.219687	-79.252024	168.196649	372.446052	-106.932572	455.264491	335.790669	-129.451324	378.366079	306.103028	-56.682163	47.074267	1007.074652	-427.915883	125.842194	966.821071	-428.390998	149.977403	993.273335	-420.672914	174.677685	892.462806	-421.931050	283.744021	755.172236	-383.941287	268.400569	741.989576	-284.666792	175.257098	651.326708	-404.162370	126.693484	583.117063	-383.433370	47.480900	541.240990	-392.825318	130.850504	583.375096	-341.875879	-59.244825	460.173590	-390.628260	-138.165441	452.242469	-359.025601	116.327272	314.151420	-358.406242	32.020318	325.842138	-421.105478	-263.942836	975.731807	-236.546006	-82.656079	78.945066	-435.130076	-82.660793	79.066007	-37.552413	
